<svg width="544" height="236" viewBox="0 0 544 236" fill="none" xmlns="http://www.w3.org/2000/svg">
<rect x="60.1043" y="118.999" width="19" height="63" rx="6.5" transform="rotate(135 60.1043 118.999)" fill="#4285F4" stroke="#4285F4" stroke-width="3"/>
<rect x="25.4561" y="126.778" width="19" height="33" rx="6.5" transform="rotate(45 25.4561 126.778)" fill="#4285F4" stroke="#4285F4" stroke-width="3"/>
<rect x="2.12132" width="19" height="33" rx="6.5" transform="matrix(0.707107 0.707107 0.707107 -0.707107 95.3733 96.2861)" fill="#FBBC04" stroke="#FBBC04" stroke-width="3"/>
<rect y="2.12132" width="19" height="63" rx="6.5" transform="matrix(-0.707107 0.707107 0.707107 0.707107 87.5952 104.065)" fill="#FBBC04" stroke="#FBBC04" stroke-width="3"/>
<rect y="2.12132" width="19" height="33" rx="6.5" transform="matrix(-0.707107 0.707107 0.707107 0.707107 87.5952 146.49)" fill="#EA4335" stroke="#EA4335" stroke-width="3"/>
<rect x="-2.12132" width="19" height="63" rx="6.5" transform="matrix(-0.707107 -0.707107 -0.707107 0.707107 79.8172 138.713)" fill="#EA4335" stroke="#EA4335" stroke-width="3"/>
<rect x="67.8813" y="111.221" width="19" height="63" rx="6.5" transform="rotate(-135 67.8813 111.221)" fill="#5F6368" stroke="#5F6368" stroke-width="3"/>
<rect x="60.1043" y="76.5732" width="19" height="33" rx="6.5" transform="rotate(135 60.1043 76.5732)" fill="#5F6368" stroke="#5F6368" stroke-width="3"/>
<path d="M189.44 127.08V113.16H207.32C211.08 113.16 213.96 112.2 215.96 110.28C218.04 108.36 219.08 105.76 219.08 102.48C219.08 99.44 218.08 96.92 216.08 94.92C214.08 92.92 211.2 91.92 207.44 91.92H189.44V77.28H209.6C215.2 77.28 220.12 78.36 224.36 80.52C228.6 82.6 231.92 85.52 234.32 89.28C236.72 93.04 237.92 97.36 237.92 102.24C237.92 107.2 236.72 111.56 234.32 115.32C231.92 119 228.56 121.88 224.24 123.96C219.92 126.04 214.84 127.08 209 127.08H189.44ZM175.04 162V77.28H193.88V162H175.04ZM221.12 162L194.72 125.52L212 120.84L243.44 162H221.12ZM276.273 163.32C270.913 163.32 266.153 162.24 261.993 160.08C257.913 157.84 254.713 154.8 252.393 150.96C250.073 147.04 248.913 142.56 248.913 137.52V103.68H267.273V137.28C267.273 139.28 267.593 141 268.233 142.44C268.953 143.88 269.993 145 271.353 145.8C272.713 146.6 274.353 147 276.273 147C278.993 147 281.153 146.16 282.753 144.48C284.353 142.72 285.153 140.32 285.153 137.28V103.68H303.513V137.4C303.513 142.52 302.353 147.04 300.033 150.96C297.713 154.8 294.513 157.84 290.433 160.08C286.353 162.24 281.633 163.32 276.273 163.32ZM353.56 162V128.76C353.56 125.72 352.6 123.28 350.68 121.44C348.84 119.52 346.48 118.56 343.6 118.56C341.6 118.56 339.84 119 338.32 119.88C336.8 120.68 335.6 121.88 334.72 123.48C333.84 125 333.4 126.76 333.4 128.76L326.32 125.28C326.32 120.72 327.32 116.72 329.32 113.28C331.32 109.84 334.08 107.2 337.6 105.36C341.2 103.44 345.24 102.48 349.72 102.48C354.04 102.48 357.84 103.52 361.12 105.6C364.48 107.6 367.12 110.28 369.04 113.64C370.96 117 371.92 120.68 371.92 124.68V162H353.56ZM315.04 162V103.68H333.4V162H315.04ZM425.832 163.44C419.512 163.44 413.632 162.32 408.192 160.08C402.752 157.84 397.992 154.72 393.912 150.72C389.912 146.72 386.752 142.08 384.432 136.8C382.192 131.44 381.072 125.68 381.072 119.52C381.072 113.28 382.192 107.52 384.432 102.24C386.672 96.96 389.792 92.36 393.792 88.44C397.872 84.44 402.592 81.36 407.952 79.2C413.392 76.96 419.272 75.84 425.592 75.84C431.992 75.84 437.872 76.96 443.232 79.2C448.672 81.36 453.392 84.44 457.392 88.44C461.472 92.36 464.632 97 466.872 102.36C469.112 107.64 470.232 113.4 470.232 119.64C470.232 125.8 469.112 131.56 466.872 136.92C464.632 142.2 461.472 146.84 457.392 150.84C453.392 154.76 448.712 157.84 443.352 160.08C437.992 162.32 432.152 163.44 425.832 163.44ZM463.632 168.72L424.032 129.12L434.952 118.2L474.552 157.8L463.632 168.72ZM425.592 146.28C430.712 146.28 435.152 145.16 438.912 142.92C442.672 140.68 445.592 137.56 447.672 133.56C449.832 129.48 450.912 124.8 450.912 119.52C450.912 115.52 450.312 111.92 449.112 108.72C447.912 105.44 446.192 102.64 443.952 100.32C441.712 97.92 439.032 96.12 435.912 94.92C432.872 93.64 429.432 93 425.592 93C420.552 93 416.152 94.12 412.392 96.36C408.632 98.52 405.672 101.6 403.512 105.6C401.432 109.52 400.392 114.16 400.392 119.52C400.392 123.52 400.992 127.16 402.192 130.44C403.392 133.72 405.112 136.56 407.352 138.96C409.592 141.28 412.232 143.08 415.272 144.36C418.392 145.64 421.832 146.28 425.592 146.28ZM484.415 162V77.28H503.255V162H484.415ZM498.935 162V145.44H540.815V162H498.935Z" fill="black"/>
</svg>
